<svg width="1248" height="367" viewBox="0 0 1248 367" fill="none" xmlns="http://www.w3.org/2000/svg">
<rect width="1248" height="367" fill="white"/>
<path d="M95.952 234V218.304H118.128V146.016H95.952V130.32H158.448V146.016H136.272V218.304H158.448V234H95.952Z" fill="url(#paint0_linear)"/>
<path d="M291.98 217.44C297.164 217.44 301.292 215.952 304.364 212.976C307.436 209.904 308.972 205.92 308.972 201.024V163.152C308.972 158.256 307.436 154.32 304.364 151.344C301.292 148.368 297.164 146.88 291.98 146.88H278.012V217.44H291.98ZM260.012 234V130.32H291.98C297.26 130.32 302.06 131.136 306.38 132.768C310.7 134.304 314.396 136.512 317.468 139.392C320.54 142.272 322.892 145.728 324.524 149.76C326.252 153.792 327.116 158.256 327.116 163.152V201.024C327.116 206.016 326.252 210.528 324.524 214.56C322.892 218.592 320.54 222.048 317.468 224.928C314.396 227.808 310.7 230.064 306.38 231.696C302.06 233.232 297.26 234 291.98 234H260.012Z" fill="url(#paint1_linear)"/>
<path d="M418.024 130.32H436.888L454.744 170.784C455.416 172.32 455.944 173.808 456.328 175.248C456.808 176.688 457.144 177.984 457.336 179.136C457.624 180.48 457.864 181.776 458.056 183.024H458.92C459.112 181.776 459.352 180.48 459.64 179.136C459.832 177.984 460.12 176.688 460.504 175.248C460.984 173.808 461.56 172.32 462.232 170.784L479.368 130.32H498.232L467.128 198V234H449.128V198L418.024 130.32Z" fill="url(#paint2_linear)"/>
<path d="M612.756 130.32V217.296H657.972V234H594.756V130.32H612.756Z" fill="url(#paint3_linear)"/>
<path d="M778.256 130.32V217.296H823.472V234H760.256V130.32H778.256Z" fill="url(#paint4_linear)"/>
<path d="M923.452 234V218.304H945.628V146.016H923.452V130.32H985.948V146.016H963.772V218.304H985.948V234H923.452Z" fill="url(#paint5_linear)"/>
<path d="M1121.06 128.88C1131.14 128.88 1139.21 131.664 1145.26 137.232C1151.4 142.704 1154.71 150.096 1155.19 159.408H1137.19C1137 154.896 1135.46 151.392 1132.58 148.896C1129.7 146.304 1125.86 145.008 1121.06 145.008C1115.98 145.008 1111.94 146.4 1108.97 149.184C1106.09 151.968 1104.65 155.808 1104.65 160.704V203.616C1104.65 208.512 1106.09 212.352 1108.97 215.136C1111.85 217.92 1115.83 219.312 1120.92 219.312C1125.82 219.312 1129.7 218.016 1132.58 215.424C1135.46 212.736 1137 209.232 1137.19 204.912H1155.19C1154.71 214.224 1151.4 221.664 1145.26 227.232C1139.21 232.704 1131.1 235.44 1120.92 235.44C1115.74 235.44 1111.03 234.72 1106.81 233.28C1102.58 231.744 1098.98 229.584 1096.01 226.8C1093.03 224.016 1090.73 220.656 1089.1 216.72C1087.46 212.784 1086.65 208.416 1086.65 203.616V160.704C1086.65 155.904 1087.46 151.536 1089.1 147.6C1090.73 143.664 1093.03 140.304 1096.01 137.52C1098.98 134.736 1102.58 132.624 1106.81 131.184C1111.13 129.648 1115.88 128.88 1121.06 128.88Z" fill="url(#paint6_linear)"/>
<defs>
<linearGradient id="paint0_linear" x1="127" y1="141" x2="105" y2="234" gradientUnits="userSpaceOnUse">
<stop stop-color="#2F80ED"/>
<stop offset="0.920934" stop-color="white"/>
</linearGradient>
<linearGradient id="paint1_linear" x1="278.5" y1="136" x2="303" y2="241" gradientUnits="userSpaceOnUse">
<stop stop-color="#2F80ED"/>
<stop offset="0.920934" stop-color="white"/>
</linearGradient>
<linearGradient id="paint2_linear" x1="444" y1="136" x2="426" y2="234" gradientUnits="userSpaceOnUse">
<stop stop-color="#2F80ED"/>
<stop offset="0.920934" stop-color="white"/>
</linearGradient>
<linearGradient id="paint3_linear" x1="609.5" y1="136" x2="650.5" y2="229" gradientUnits="userSpaceOnUse">
<stop stop-color="#2F80ED"/>
<stop offset="0.920934" stop-color="white"/>
</linearGradient>
<linearGradient id="paint4_linear" x1="800" y1="133.5" x2="778" y2="234" gradientUnits="userSpaceOnUse">
<stop stop-color="#2F80ED"/>
<stop offset="0.920934" stop-color="white"/>
</linearGradient>
<linearGradient id="paint5_linear" x1="967.5" y1="139.5" x2="940.5" y2="240.5" gradientUnits="userSpaceOnUse">
<stop stop-color="#2F80ED"/>
<stop offset="0.920934" stop-color="white"/>
</linearGradient>
<linearGradient id="paint6_linear" x1="1106" y1="136" x2="1147" y2="229" gradientUnits="userSpaceOnUse">
<stop stop-color="#2F80ED"/>
<stop offset="0.920934" stop-color="white"/>
</linearGradient>
</defs>
</svg>
